<?xml version="1.0" standalone="no"?>
<!DOCTYPE svg PUBLIC "-//W3C//DTD SVG 20010904//EN"
 "http://www.w3.org/TR/2001/REC-SVG-20010904/DTD/svg10.dtd">
<svg version="1.0" xmlns="http://www.w3.org/2000/svg"
 width="184.000000pt" height="184.000000pt" viewBox="0 0 184.000000 184.000000"
 preserveAspectRatio="xMidYMid meet">

<g transform="translate(0.000000,184.000000) scale(0.100000,-0.100000)"
fill="#FFFFFF" stroke="#FFFFFF">
<path d="M0 920 l0 -920 920 0 920 0 0 920 0 920 -920 0 -920 0 0 -920z m387
678 c-3 -8 -6 -5 -6 6 -1 11 2 17 5 13 3 -3 4 -12 1 -19z m1023 -117 c114 -56
169 -219 101 -302 l-19 -23 -103 32 c-57 17 -123 36 -146 42 l-43 11 0 48 c0
77 48 192 94 223 15 10 53 0 116 -31z m-738 -16 c59 -21 132 -94 153 -153 31
-93 16 -140 -54 -165 -61 -21 -59 -21 -64 6 -4 19 -4 19 -6 -5 -1 -24 -12 -32
-87 -69 -98 -47 -111 -45 -154 19 -21 31 -25 48 -25 107 1 87 34 163 102 229
51 50 66 54 135 31z m481 -272 c45 -84 120 -425 103 -469 -3 -8 0 -23 6 -33 9
-15 8 -22 -7 -37 -18 -19 -18 -18 -12 6 6 24 5 24 -19 -5 l-25 -30 11 28 c13
36 12 47 -1 25 -7 -12 -22 -18 -49 -18 -30 0 -40 -4 -40 -16 0 -13 -7 -15 -37
-9 -21 4 -41 12 -45 18 -5 9 -10 9 -20 -1 -6 -6 -31 -12 -54 -12 -24 0 -46 -5
-50 -11 -3 -6 -15 -8 -27 -5 -11 3 -37 -3 -59 -14 -21 -10 -57 -21 -81 -25
-48 -7 -107 -32 -107 -44 0 -5 -21 -12 -47 -15 -27 -4 -61 -12 -76 -18 -23 -9
-31 -8 -38 3 -6 10 -9 8 -10 -11 0 -14 -3 -19 -6 -12 -2 6 -9 12 -15 12 -6 0
-7 -7 -4 -16 4 -10 1 -14 -6 -12 -7 3 -27 48 -45 102 -17 54 -50 135 -73 181
l-42 85 33 27 c179 153 396 258 749 361 59 17 66 14 93 -35z m119 17 c58 -16
137 -41 174 -55 89 -33 254 -116 254 -127 0 -4 6 -8 14 -8 9 0 12 -7 9 -20 -3
-11 -9 -20 -14 -20 -5 0 -9 -14 -9 -31 0 -17 -4 -28 -10 -24 -5 3 -10 1 -10
-6 0 -6 -9 -19 -20 -29 -24 -21 -52 -84 -42 -95 4 -4 -2 -5 -13 -3 -16 2 -21
-3 -23 -32 -5 -55 -22 -61 -22 -7 0 46 -19 69 -21 25 0 -22 -1 -22 -9 -3 -6
14 -9 15 -10 5 -1 -20 -65 -60 -94 -60 -13 0 -29 -7 -36 -15 -7 -8 -18 -15
-24 -14 -45 5 -56 -1 -56 -33 l-1 -33 -14 39 c-7 21 -16 61 -20 90 -20 165
-79 391 -117 454 -25 40 -22 41 114 2z m421 -119 c13 -5 27 -16 30 -25 5 -12
1 -13 -23 -4 -30 10 -61 38 -42 38 6 0 22 -4 35 -9z m-1456 -233 c29 -32 66
-95 85 -145 l16 -42 -24 9 c-19 8 -24 6 -24 -6 0 -37 -38 -4 -76 68 -22 43
-52 86 -65 97 l-24 20 25 10 c40 16 65 13 87 -11z m-83 -47 c17 -18 25 -34 21
-42 -5 -7 -4 -10 3 -5 10 6 92 -187 92 -217 0 -28 -40 35 -69 109 -38 97 -56
124 -81 124 -24 0 -31 11 -23 38 7 30 24 28 57 -7z m14 -124 c45 -94 83 -185
88 -210 3 -12 8 -35 10 -52 l6 -30 -30 29 c-43 40 -87 128 -110 219 -19 73
-20 123 -1 112 4 -3 21 -34 37 -68z m899 -63 c-3 -3 -12 -4 -19 -1 -8 3 -5 6
6 6 11 1 17 -2 13 -5z m55 -19 c0 -5 -5 -10 -11 -11 -8 -2 -7 -1 0 3 8 4 7 8
-2 15 -11 8 -11 9 -1 6 8 -2 14 -8 14 -13z m-35 -1 c-3 -3 -12 -4 -19 -1 -8 3
-5 6 6 6 11 1 17 -2 13 -5z m-390 -296 c-3 -8 -6 -5 -6 6 -1 11 2 17 5 13 3
-3 4 -12 1 -19z"/>
<path d="M425 685 c7 -71 16 -95 36 -95 21 0 24 26 8 70 -7 19 -8 14 -4 -20 5
-42 4 -44 -10 -26 -8 11 -15 37 -15 57 0 21 -4 40 -9 43 -5 3 -8 -10 -6 -29z"/>
<path d="M1451 1048 c-1 -19 4 -28 14 -28 9 0 15 9 14 23 0 21 -1 21 -8 2 -8
-19 -9 -18 -13 5 -5 25 -5 25 -7 -2z"/>
</g>
</svg>
